<svg id="Capa_1" data-name="Capa 1" xmlns="http://www.w3.org/2000/svg" viewBox="0 0 1264.89 339.62"><defs><style>.cls-1{fill:#100f2b;}</style></defs><path class="cls-1" d="M618.32,226.49,668.09,17.58h49.16L653.78,226.16H582.87L519.4,17.58h49.16Z"/><path class="cls-1" d="M429.86,16.8,406.42,34.74l-71.86,0V104h71.67v18H334.56v85.81h105.3v19H283V16.8Z"/><path class="cls-1" d="M953.93,17,930.49,35l-71.85,0v69.22H930.3v18H858.64V208h105.3v19H807.07V17Z"/><path class="cls-1" d="M115.93,123.76A92.75,92.75,0,0,0,136.69,116a63.65,63.65,0,0,0,16.13-11.8A51,51,0,0,0,163.2,88.84a45.26,45.26,0,0,0,3.7-18.24,49.64,49.64,0,0,0-4.8-21.79,47.38,47.38,0,0,0-14.24-17.22q-9.44-7.24-23.59-11.25t-32.88-4H19V224.91h1l34.1-26.44V126.91H78.65l72.52,98h40.74ZM96.19,113.22a72.12,72.12,0,0,1-21.79,3.15H54.11v-87H84.94a48.43,48.43,0,0,1,17.7,3.15,42.55,42.55,0,0,1,14,8.73,38.27,38.27,0,0,1,9.12,13.45A45.17,45.17,0,0,1,129,72a39.74,39.74,0,0,1-15.5,32.33A53.68,53.68,0,0,1,96.19,113.22Z"/><path class="cls-1" d="M195.66,226.78H150.22l-72.51-98H56v70.6L20.65,226.78H17.16V14.45H91.39c12.59,0,23.82,1.38,33.39,4.08S142.55,25.15,149,30.1A49.58,49.58,0,0,1,163.79,48a51.69,51.69,0,0,1,5,22.6,47.26,47.26,0,0,1-3.85,19,52.71,52.71,0,0,1-10.76,15.9,65.92,65.92,0,0,1-16.59,12.15,94.55,94.55,0,0,1-18.46,7.23ZM152.11,223h36l-75.42-100.4,2.75-.69a91.15,91.15,0,0,0,20.34-7.63,62.36,62.36,0,0,0,15.66-11.44,49.31,49.31,0,0,0,10-14.78A43.57,43.57,0,0,0,165,70.6a48.07,48.07,0,0,0-4.61-21,46,46,0,0,0-13.69-16.55c-6.07-4.65-13.8-8.33-23-10.93S103.64,18.2,91.39,18.2H20.91V221.83l31.33-24.28V125H79.6ZM74.4,118.25H52.24V27.51h32.7a50.66,50.66,0,0,1,18.38,3.27,44.68,44.68,0,0,1,14.61,9.12A40.35,40.35,0,0,1,127.5,54a47.33,47.33,0,0,1,3.36,18,41.55,41.55,0,0,1-16.21,33.8,55.9,55.9,0,0,1-17.9,9.2h0A74.15,74.15,0,0,1,74.4,118.25ZM56,114.49H74.4a71,71,0,0,0,21.23-3h0a52.3,52.3,0,0,0,16.7-8.58A37.84,37.84,0,0,0,127.11,72,43.71,43.71,0,0,0,124,55.42a36.58,36.58,0,0,0-8.68-12.8A40.84,40.84,0,0,0,102,34.28a46.69,46.69,0,0,0-17-3H56Z"/><path class="cls-1" d="M1168.29,122.87a92.75,92.75,0,0,0,20.76-7.78,63.89,63.89,0,0,0,16.13-11.8A51,51,0,0,0,1215.56,88a45.26,45.26,0,0,0,3.7-18.24,49.64,49.64,0,0,0-4.8-21.79,47.6,47.6,0,0,0-14.24-17.23q-9.43-7.23-23.59-11.24t-32.88-4h-72.36V224h1l34.1-26.44V126H1131l72.52,98h40.74Zm-19.74-10.54a72.12,72.12,0,0,1-21.79,3.15h-20.29v-87h30.83a48.43,48.43,0,0,1,17.7,3.15,42.55,42.55,0,0,1,14,8.73,38.18,38.18,0,0,1,9.12,13.45,45.17,45.17,0,0,1,3.23,17.3,39.74,39.74,0,0,1-15.5,32.33A53.68,53.68,0,0,1,1148.55,112.33Z"/><path class="cls-1" d="M1248,226.47h-45.44l-72.52-98h-21.71v70.6L1073,226.47h-3.49V14.14h74.23c12.59,0,23.82,1.37,33.39,4.08s17.77,6.62,24.22,11.56a49.67,49.67,0,0,1,14.79,17.9,51.72,51.72,0,0,1,5,22.6,47.28,47.28,0,0,1-3.85,19,53,53,0,0,1-10.76,15.9,66.07,66.07,0,0,1-16.59,12.14,93.16,93.16,0,0,1-18.47,7.23Zm-43.55-3.75h36l-75.42-100.4,2.75-.69a91.15,91.15,0,0,0,20.34-7.63,62.36,62.36,0,0,0,15.66-11.44,49.31,49.31,0,0,0,10-14.78,43.58,43.58,0,0,0,3.54-17.5,48,48,0,0,0-4.61-21,46,46,0,0,0-13.69-16.55c-6.07-4.66-13.8-8.33-23-10.93s-20.12-3.94-32.37-3.94h-70.48V221.52l31.33-24.29V124.72H1132Zm-77.71-104.79H1104.6V27.19h32.7a50.45,50.45,0,0,1,18.38,3.28,44.66,44.66,0,0,1,14.61,9.11,40.57,40.57,0,0,1,9.57,14.1,47.42,47.42,0,0,1,3.36,18A41.66,41.66,0,0,1,1167,105.5a56.11,56.11,0,0,1-17.9,9.2h0A74.47,74.47,0,0,1,1126.76,117.93Zm-18.41-3.75h18.41a70.72,70.72,0,0,0,21.23-3.06h0a52.28,52.28,0,0,0,16.7-8.57,37.88,37.88,0,0,0,14.78-30.85,43.71,43.71,0,0,0-3.08-16.59,36.49,36.49,0,0,0-8.68-12.8A41,41,0,0,0,1154.32,34a46.94,46.94,0,0,0-17-3h-29Z"/><path class="cls-1" d="M17.16,324.07v-47c0-.45.39-.68,1.17-.68h35.9q8.9,0,14.23,2.78t5.33,7.44v27.89q0,4.67-5.33,7.44t-14.23,2.79H18.33C17.55,324.75,17.16,324.52,17.16,324.07Zm5.69-1.43H54.23q7.29,0,11.24-2.18c2.63-1.45,3.94-3.46,3.94-6V286.71q0-3.84-3.94-6t-11.24-2.18H22.85c-.87,0-1.31.2-1.31.6V322C21.54,322.44,22,322.64,22.85,322.64Z"/><path class="cls-1" d="M54.23,325H18.33c-1.21,0-1.46-.52-1.46-1v-47c0-.44.25-1,1.46-1h35.9c6,0,10.79.95,14.36,2.82s5.49,4.49,5.49,7.69v27.89c0,3.21-1.85,5.8-5.49,7.7S60.19,325,54.23,325ZM18.33,276.7c-.88,0-.88.29-.88.39v47c0,.09,0,.39.88.39h35.9c5.86,0,10.6-.93,14.1-2.75s5.17-4.21,5.17-7.19V286.63c0-3-1.74-5.39-5.17-7.18s-8.24-2.75-14.1-2.75Zm35.9,46.23H22.85c-1.06,0-1.6-.3-1.6-.89V279.12c0-.59.54-.89,1.6-.89H54.23c4.89,0,8.72.74,11.38,2.21s4.09,3.61,4.09,6.27v27.74c0,2.65-1.38,4.76-4.09,6.26S59.12,322.93,54.23,322.93ZM22.85,278.81c-.24,0-1,0-1,.31V322c0,.29.78.31,1,.31H54.23c4.8,0,8.53-.72,11.1-2.14s3.79-3.3,3.79-5.76V286.71c0-2.46-1.24-4.35-3.79-5.76s-6.31-2.14-11.1-2.14Z"/><path class="cls-1" d="M104.86,277.09v47c0,.45-.39.68-1.17.68h-2c-.78,0-1.17-.23-1.17-.68v-47c0-.45.39-.68,1.17-.68h2C104.47,276.41,104.86,276.64,104.86,277.09Z"/><path class="cls-1" d="M103.69,325h-2c-1.2,0-1.46-.52-1.46-1v-47c0-.44.26-1,1.46-1h2c1.27,0,1.46.61,1.46,1v47C105.15,324.43,105,325,103.69,325Zm-2-48.33c-.88,0-.88.29-.88.39v47c0,.09,0,.39.88.39h2c.88,0,.88-.3.88-.39v-47c0-.1,0-.39-.88-.39Z"/><path class="cls-1" d="M166,324.75H150q-8.91,0-14.23-2.79t-5.33-7.44V286.63q0-4.65,5.33-7.44T150,276.41h16q8.91,0,14.23,2.78t5.33,7.44v3.76c0,.46-.39.68-1.17.68h-2c-.78,0-1.17-.22-1.17-.68v-3.68q0-3.84-3.94-6T166,278.52H150q-7.31,0-11.24,2.18t-3.94,6v27.74c0,2.55,1.31,4.56,3.94,6s6.37,2.18,11.24,2.18h16q7.31,0,11.24-2.18c2.63-1.45,3.94-3.46,3.94-6V303.1c0-.4-.44-.6-1.31-.6H161.05c-.88,0-1.31-.2-1.31-.61V301c0-.4.43-.6,1.31-.6h21.89c1.76,0,2.63.48,2.63,1.43v12.7q0,4.67-5.33,7.44T166,324.75Z"/><path class="cls-1" d="M166,325H150c-6,0-10.79-.94-14.37-2.81s-5.48-4.49-5.48-7.7V286.63c0-3.2,1.85-5.79,5.48-7.69s8.42-2.82,14.37-2.82h16c6,0,10.79.95,14.37,2.82s5.48,4.49,5.48,7.69v3.76c0,.44-.25,1-1.46,1h-2c-1.2,0-1.46-.53-1.46-1v-3.68c0-2.46-1.24-4.35-3.79-5.76s-6.3-2.14-11.1-2.14H150c-4.8,0-8.53.72-11.1,2.14s-3.79,3.3-3.79,5.76v27.74c0,2.46,1.24,4.35,3.79,5.76s6.3,2.14,11.1,2.14h16c4.8,0,8.53-.72,11.1-2.14s3.79-3.3,3.79-5.76V303.1c0-.29-.78-.32-1-.32H161.05c-1.06,0-1.6-.3-1.6-.89V301c0-.59.54-.89,1.6-.89h21.89c1.94,0,2.92.58,2.92,1.72v12.7c0,3.21-1.85,5.8-5.48,7.7S172,325,166,325ZM150,276.7c-5.86,0-10.6.93-14.1,2.75s-5.17,4.21-5.17,7.18v27.89c0,3,1.74,5.4,5.17,7.19s8.24,2.75,14.1,2.75h16c5.86,0,10.61-.93,14.1-2.75s5.17-4.21,5.17-7.19v-12.7c0-.28,0-1.14-2.34-1.14H161.05c-.24,0-1,0-1,.31v.9c0,.29.79.32,1,.32h18.83c1.06,0,1.6.3,1.6.89v11.35c0,2.65-1.38,4.76-4.09,6.26s-6.48,2.22-11.38,2.22H150c-4.9,0-8.72-.75-11.38-2.22s-4.09-3.61-4.09-6.26V286.71c0-2.66,1.38-4.76,4.09-6.27s6.49-2.21,11.38-2.21h16c4.9,0,8.72.74,11.38,2.21s4.09,3.61,4.09,6.27v3.68c0,.1,0,.39.88.39h2c.88,0,.88-.29.88-.39v-3.76c0-3-1.74-5.39-5.17-7.18s-8.24-2.75-14.1-2.75Z"/><path class="cls-1" d="M220.11,277.09v47c0,.45-.39.68-1.17.68h-2c-.78,0-1.17-.23-1.17-.68v-47c0-.45.39-.68,1.17-.68h2C219.72,276.41,220.11,276.64,220.11,277.09Z"/><path class="cls-1" d="M218.94,325h-2c-1.21,0-1.46-.52-1.46-1v-47c0-.44.25-1,1.46-1h2c1.27,0,1.46.61,1.46,1v47C220.4,324.43,220.21,325,218.94,325Zm-2-48.33c-.88,0-.88.29-.88.39v47c0,.09,0,.39.88.39h2c.88,0,.88-.3.88-.39v-47c0-.1,0-.39-.88-.39Z"/><path class="cls-1" d="M271,324.75h-2.05c-.78,0-1.16-.23-1.16-.68V279.12q0-.6-1.32-.6H244q-1.32,0-1.32-.6V277q0-.6,1.32-.6h52q1.32,0,1.32.6v.91q0,.6-1.32.6H273.46c-.88,0-1.31.2-1.31.6v44.95C272.15,324.52,271.76,324.75,271,324.75Z"/><path class="cls-1" d="M271,325h-2.05c-1.2,0-1.45-.52-1.45-1V279.12c0-.29-.79-.31-1-.31H244c-1.07,0-1.61-.3-1.61-.89V277c0-.59.54-.89,1.61-.89h52c1.07,0,1.61.3,1.61.89v.91c0,.59-.54.89-1.61.89H273.46c-.24,0-1,0-1,.31v44.95C272.43,324.43,272.24,325,271,325ZM244,276.7c-.24,0-1,0-1,.31v.91c0,.29.79.31,1,.31h22.47c1.07,0,1.61.3,1.61.89v44.95c0,.09,0,.39.87.39H271c.88,0,.88-.3.88-.39V279.12c0-.59.54-.89,1.6-.89h22.47c.24,0,1,0,1-.31V277c0-.29-.79-.31-1-.31Z"/><path class="cls-1" d="M307.61,324.75h-2c-.88,0-1.17-.23-.88-.68l30.65-47a1.61,1.61,0,0,1,1.46-.68h3.5a1.61,1.61,0,0,1,1.46.68l30.65,47c.29.45,0,.68-.88.68h-2.19a1.59,1.59,0,0,1-1.45-.68L359,311H318.12l-8.91,13.08A2,2,0,0,1,307.61,324.75Zm30.65-45.48-18.54,29.46h37.66l-18.54-29.46Z"/><path class="cls-1" d="M371.53,325h-2.19a1.89,1.89,0,0,1-1.7-.8l-8.81-13H318.27l-8.82,13a2.3,2.3,0,0,1-1.84.8h-2c-.69,0-1.06-.12-1.21-.41a.65.65,0,0,1,.09-.71l30.65-47a1.89,1.89,0,0,1,1.7-.81h3.5a1.89,1.89,0,0,1,1.7.81l30.65,47a.65.65,0,0,1,.09.71C372.59,324.91,372.22,325,371.53,325ZM318,310.7h41.18l9,13.21a1.33,1.33,0,0,0,1.22.55h2.19c.53,0,.68-.09.7-.11a.28.28,0,0,0-.06-.12l-30.65-47a1.33,1.33,0,0,0-1.22-.55h-3.5a1.33,1.33,0,0,0-1.22.55l-30.65,47a.35.35,0,0,0-.06.13,1.46,1.46,0,0,0,.7.1h2a1.73,1.73,0,0,0,1.39-.58ZM357.9,309H319.2l18.9-30h.9Zm-37.66-.57h36.62l-18.18-28.89h-.26Z"/><path class="cls-1" d="M437.21,324.75h-46c-.77,0-1.16-.23-1.16-.68v-47c0-.45.39-.68,1.16-.68h2c.78,0,1.17.23,1.17.68v44.8c0,.4.43.6,1.31.6h41.45c.88,0,1.31.2,1.31.6v1.05C438.52,324.55,438.09,324.75,437.21,324.75Z"/><path class="cls-1" d="M437.21,325h-46c-1.2,0-1.45-.52-1.45-1v-47c0-.44.25-1,1.45-1h2c1.27,0,1.46.61,1.46,1v44.8c0,.29.78.31,1,.31h41.45c1.06,0,1.6.3,1.6.89v1.05C438.81,324.73,438.27,325,437.21,325Zm-46-48.33c-.87,0-.87.29-.87.39v47c0,.09,0,.39.87.39h46c.24,0,1,0,1-.32v-1.05c0-.29-.78-.31-1-.31H395.76c-1.06,0-1.6-.3-1.6-.89v-44.8c0-.1,0-.39-.88-.39Z"/><path class="cls-1" d="M985.82,325.2h-1.6c-.61,0-.91-.23-.91-.69V278.72c0-.41-.34-.62-1-.62h-17.6c-.68,0-1-.2-1-.61v-.92c0-.41.35-.61,1-.61h40.69c.68,0,1,.2,1,.61v.92c0,.41-.35.61-1,.61h-17.6c-.69,0-1,.21-1,.62v45.79C986.74,325,986.43,325.2,985.82,325.2Z"/><path class="cls-1" d="M985.82,325.49h-1.6c-1.08,0-1.2-.69-1.2-1V278.72c0-.08,0-.33-.74-.33h-17.6c-1.14,0-1.32-.56-1.32-.9v-.92c0-.34.18-.9,1.32-.9h40.69c1.14,0,1.31.56,1.31.9v.92c0,.34-.17.9-1.31.9h-17.6c-.74,0-.74.25-.74.33v45.79C987,324.8,986.91,325.49,985.82,325.49Zm-21.14-49.24c-.74,0-.74.24-.74.32v.92c0,.08,0,.32.74.32h17.6c1.15,0,1.32.57,1.32.91v45.79c0,.15,0,.4.62.4h1.6c.63,0,.63-.26.63-.4V278.72c0-.34.17-.91,1.32-.91h17.6c.74,0,.74-.24.74-.32v-.92c0-.08,0-.32-.74-.32Z"/><path class="cls-1" d="M1039.48,325.2h-3.09a1.27,1.27,0,0,1-1.25-.69l-16.58-47.86c-.15-.46.16-.69.92-.69h1.6a1.18,1.18,0,0,1,1.14.69l15.43,45.64h.46l19.08-45.64a1.28,1.28,0,0,1,1.26-.69h2.17a1.28,1.28,0,0,1,1.26.69l19.2,45.64h.46L1097,276.65c.15-.46.57-.69,1.25-.69h1.72c.68,0,.91.23.68.69l-16.57,47.86a1,1,0,0,1-1.14.69h-3.09a1.28,1.28,0,0,1-1.26-.69l-18.74-45.18h-.45l-18.75,45.18A1.18,1.18,0,0,1,1039.48,325.2Z"/><path class="cls-1" d="M1082.91,325.49h-3.09a1.55,1.55,0,0,1-1.51-.85l-18.68-45h-.07l-18.67,45a1.48,1.48,0,0,1-1.41.87h-3.09a1.55,1.55,0,0,1-1.51-.85l-16.59-47.9a.74.74,0,0,1,.07-.69c.19-.26.54-.38,1.12-.38h1.6a1.47,1.47,0,0,1,1.4.85L1037.86,322h.06l19-45.46a1.55,1.55,0,0,1,1.52-.87h2.17a1.55,1.55,0,0,1,1.52.85L1081.27,322h.06l15.36-45.44c.13-.41.51-.89,1.53-.89h1.72c.5,0,.82.12,1,.36a.77.77,0,0,1,0,.75l-16.56,47.83A1.32,1.32,0,0,1,1082.91,325.49ZM1059.17,279h.85l18.81,45.36a1,1,0,0,0,1,.51h3.09c.63,0,.8-.28.87-.49l16.57-47.87c.08-.17.07-.22.07-.22h0s-.08-.08-.48-.08h-1.72c-.73,0-.91.28-1,.49l-15.5,45.84h-.85l-.08-.18-19.2-45.64a1,1,0,0,0-1-.51h-2.17a1,1,0,0,0-1,.53l-19.15,45.8h-.86l-.06-.2L1022,276.74a.9.9,0,0,0-.87-.49h-1.6c-.54,0-.64.12-.65.14s0,.13,0,.17l16.57,47.86a1,1,0,0,0,1,.49h3.09a.89.89,0,0,0,.88-.53Z"/><path class="cls-1" d="M1117.87,276.65v47.86c0,.46-.31.69-.92.69h-1.6c-.61,0-.91-.23-.91-.69V276.65c0-.46.3-.69.91-.69h1.6C1117.56,276,1117.87,276.19,1117.87,276.65Z"/><path class="cls-1" d="M1117,325.49h-1.6c-1.08,0-1.2-.69-1.2-1V276.65c0-.3.12-1,1.2-1h1.6c1.09,0,1.2.68,1.2,1v47.86C1118.15,324.8,1118,325.49,1117,325.49Zm-1.6-49.24c-.62,0-.62.25-.62.4v47.86c0,.15,0,.4.62.4h1.6c.63,0,.63-.26.63-.4V276.65c0-.15,0-.4-.63-.4Z"/><path class="cls-1" d="M1140.37,325.2h-1.6c-.61,0-.92-.23-.92-.69V276.65c0-.46.31-.69.92-.69h1.6a.93.93,0,0,1,.8.31l38.28,43.42h.46v-43c0-.46.3-.69.91-.69h1.6c.61,0,.92.23.92.69v47.86c0,.46-.31.69-.92.69h-1.14a1.84,1.84,0,0,1-1.37-.61l-38.17-43.27h-.46v43.19C1141.28,325,1141,325.2,1140.37,325.2Z"/><path class="cls-1" d="M1182.42,325.49h-1.14a2.08,2.08,0,0,1-1.58-.71l-38.09-43.17h0v42.9c0,.29-.12,1-1.2,1h-1.6c-1,0-1.21-.61-1.21-1V276.65c0-.37.16-1,1.21-1h1.6a1.21,1.21,0,0,1,1,.42l38.18,43.31h0V276.65c0-.3.12-1,1.2-1h1.6c1.09,0,1.21.68,1.21,1v47.86C1183.63,324.8,1183.51,325.49,1182.42,325.49ZM1141,281h.88l38.26,43.37a1.52,1.52,0,0,0,1.15.51h1.14c.63,0,.63-.26.63-.4V276.65c0-.14,0-.4-.63-.4h-1.6c-.62,0-.62.25-.62.4V320h-.88l-.08-.09L1141,276.46a.67.67,0,0,0-.58-.21h-1.6c-.63,0-.63.25-.63.4v47.86c0,.15,0,.4.63.4h1.6c.62,0,.62-.26.62-.4Z"/><path class="cls-1" d="M1202.75,314.79v-3.07c0-.46.31-.69.92-.69h1.6c.61,0,.91.23.91.69v3a7.12,7.12,0,0,0,3.09,6.12c2,1.48,5,2.23,8.8,2.23h13.71c3.81,0,6.74-.75,8.8-2.23a7.12,7.12,0,0,0,3.09-6.12v-3.83q0-3.6-4.23-5.71a35.7,35.7,0,0,0-10.23-3.06l-12-1.91A33.29,33.29,0,0,1,1207,297q-4.23-2.22-4.23-6v-4.6a8.75,8.75,0,0,1,4.17-7.58q4.18-2.84,11.15-2.83h13.71q7,0,11.14,2.83a8.74,8.74,0,0,1,4.18,7.58v2.3c0,.46-.31.69-.92.69h-1.6c-.61,0-.91-.23-.91-.69v-2.22a7.15,7.15,0,0,0-3.09-6.13q-3.09-2.22-8.8-2.22h-13.71c-3.81,0-6.75.74-8.8,2.22a7.15,7.15,0,0,0-3.09,6.13v4.44q0,5.67,14.4,7.81,6.06.85,12.06,1.88a30.14,30.14,0,0,1,10.23,3.52q4.23,2.49,4.23,6.63v4.06a8.74,8.74,0,0,1-4.18,7.58q-4.17,2.83-11.14,2.83h-13.71q-7,0-11.15-2.83A8.75,8.75,0,0,1,1202.75,314.79Z"/><path class="cls-1" d="M1231.78,325.49h-13.71c-4.69,0-8.49-1-11.31-2.89a9,9,0,0,1-4.3-7.81v-3.07c0-.29.12-1,1.21-1h1.6c1.08,0,1.2.69,1.2,1v3a6.8,6.8,0,0,0,3,5.89c2,1.44,4.9,2.17,8.63,2.17h13.71c3.73,0,6.64-.73,8.63-2.17a6.8,6.8,0,0,0,3-5.89v-3.83c0-2.3-1.33-4.08-4.07-5.45a35.56,35.56,0,0,0-10.15-3l-12-1.92a33.53,33.53,0,0,1-10.31-3.21c-2.91-1.52-4.39-3.64-4.39-6.3v-4.6a9.07,9.07,0,0,1,4.3-7.82c2.82-1.91,6.62-2.88,11.31-2.88h13.71c4.68,0,8.49,1,11.31,2.88a9.06,9.06,0,0,1,4.29,7.82v2.3c0,.29-.11,1-1.2,1h-1.6c-1,0-1.2-.61-1.2-1v-2.22a6.8,6.8,0,0,0-3-5.89c-2-1.44-4.9-2.17-8.63-2.17h-13.71c-3.73,0-6.64.73-8.63,2.17a6.8,6.8,0,0,0-3,5.89v4.44c0,3.6,4.76,6.13,14.15,7.53,4.07.57,8.13,1.2,12.07,1.87a30.53,30.53,0,0,1,10.32,3.56c2.9,1.71,4.37,4,4.37,6.88v4.06a9,9,0,0,1-4.29,7.81C1240.27,324.52,1236.47,325.49,1231.78,325.49Zm-28.11-14.17c-.63,0-.63.25-.63.4v3.07a8.52,8.52,0,0,0,4,7.34c2.71,1.84,6.41,2.78,11,2.78h13.71c4.57,0,8.27-.94,11-2.78a8.52,8.52,0,0,0,4-7.34v-4.06c0-2.68-1.34-4.76-4.09-6.38a29.92,29.92,0,0,0-10.13-3.49c-3.93-.67-8-1.3-12-1.87-9.86-1.47-14.65-4.12-14.65-8.1v-4.44a7.43,7.43,0,0,1,3.21-6.36c2.1-1.51,5.11-2.28,9-2.28h13.71c3.85,0,6.87.77,9,2.28a7.43,7.43,0,0,1,3.21,6.36v2.22c0,.15,0,.4.62.4h1.6c.63,0,.63-.25.63-.4v-2.3a8.49,8.49,0,0,0-4-7.34c-2.72-1.85-6.41-2.78-11-2.78h-13.71c-4.57,0-8.26.93-11,2.78a8.49,8.49,0,0,0-4,7.34V291c0,2.46,1.33,4.36,4.08,5.79a32.89,32.89,0,0,0,10.14,3.15l12,1.92a36.13,36.13,0,0,1,10.31,3.09c2.91,1.45,4.39,3.45,4.39,6v3.83a7.43,7.43,0,0,1-3.21,6.36c-2.1,1.51-5.11,2.27-9,2.27h-13.71c-3.86,0-6.87-.76-9-2.27a7.43,7.43,0,0,1-3.21-6.36v-3c0-.14,0-.4-.62-.4Z"/></svg>