<svg id="Capa_1" data-name="Capa 1" xmlns="http://www.w3.org/2000/svg" viewBox="0 0 886.49 238.02"><defs><style>.cls-1{fill:#fff;}</style></defs><path class="cls-1" d="M433.42,158.45,468,13.09h34.21L458.09,158.21H408.75L364.59,13.09H398.8Z"/><path class="cls-1" d="M302.29,12.55,286,25l-50,0V73.21h49.86v12.5H236v59.7h73.26v13.24H200.11V12.55Z"/><path class="cls-1" d="M666.92,12.72,650.61,25.2l-50,0V73.38h49.86v12.5H600.62v59.7h73.26v13.24H564.74V12.72Z"/><path class="cls-1" d="M83.87,87a64.43,64.43,0,0,0,14.45-5.42,44.16,44.16,0,0,0,11.22-8.2,35.37,35.37,0,0,0,7.22-10.67A31.37,31.37,0,0,0,119.33,50,34.66,34.66,0,0,0,116,34.82a33.12,33.12,0,0,0-9.91-12A48.54,48.54,0,0,0,89.68,15,84.35,84.35,0,0,0,66.8,12.22H16.46V157.34h.67L40.86,139V89.16H57.94l50.45,68.18h28.35ZM70.14,79.64A50.22,50.22,0,0,1,55,81.83H40.86V21.31H62.31A33.77,33.77,0,0,1,74.63,23.5a29.67,29.67,0,0,1,9.74,6.07,26.58,26.58,0,0,1,6.34,9.36A31.37,31.37,0,0,1,93,51,27.71,27.71,0,0,1,82.18,73.46,37.64,37.64,0,0,1,70.14,79.64Z"/><path class="cls-1" d="M139.35,158.65H107.73L57.28,90.47H42.17v49.12L17.58,158.65H15.15V10.92H66.8A85.72,85.72,0,0,1,90,13.76a50,50,0,0,1,16.86,8,34.56,34.56,0,0,1,10.28,12.46A36,36,0,0,1,120.64,50,32.92,32.92,0,0,1,118,63.2a36.86,36.86,0,0,1-7.49,11.06,46,46,0,0,1-11.54,8.45,65.45,65.45,0,0,1-12.85,5ZM109.05,156h25.07L81.65,86.18l1.91-.47A63.9,63.9,0,0,0,97.71,80.4a43.09,43.09,0,0,0,10.9-8,34.43,34.43,0,0,0,7-10.27A30.44,30.44,0,0,0,118,50a33.38,33.38,0,0,0-3.21-14.59,32,32,0,0,0-9.52-11.52,47.68,47.68,0,0,0-16-7.6A83.34,83.34,0,0,0,66.8,13.53h-49V155.21l21.8-16.9V87.86h19ZM55,83.13H39.56V20H62.31A35.2,35.2,0,0,1,75.1,22.28a31.05,31.05,0,0,1,10.16,6.34,28.08,28.08,0,0,1,6.66,9.81A32.82,32.82,0,0,1,94.26,51,28.94,28.94,0,0,1,83,74.48a38.78,38.78,0,0,1-12.45,6.4h0A51.49,51.49,0,0,1,55,83.13ZM42.17,80.52H55a48.9,48.9,0,0,0,14.77-2.13h0a36.34,36.34,0,0,0,11.62-6A26.29,26.29,0,0,0,91.65,51a30.41,30.41,0,0,0-2.14-11.55,25.4,25.4,0,0,0-6-8.9,28.51,28.51,0,0,0-9.32-5.81,32.66,32.66,0,0,0-11.84-2.1H42.17Z"/><path class="cls-1" d="M816.06,86.35a64.62,64.62,0,0,0,14.45-5.42,44.34,44.34,0,0,0,11.22-8.2A35.56,35.56,0,0,0,849,62.06a31.54,31.54,0,0,0,2.57-12.7,34.52,34.52,0,0,0-3.34-15.16,33,33,0,0,0-9.9-12,48.51,48.51,0,0,0-16.42-7.83A84.27,84.27,0,0,0,799,11.6H748.64V156.72h.68l23.73-18.39V88.54h17.07l50.46,68.18h28.34ZM802.33,79a50.26,50.26,0,0,1-15.16,2.19H773.05V20.69H794.5a33.71,33.71,0,0,1,12.31,2.19A29.47,29.47,0,0,1,816.55,29a26.6,26.6,0,0,1,6.35,9.36,31.37,31.37,0,0,1,2.24,12,27.64,27.64,0,0,1-10.78,22.49A37.59,37.59,0,0,1,802.33,79Z"/><path class="cls-1" d="M871.53,158.43H839.92L789.47,90.25H774.35v49.12l-24.58,19.06h-2.43V10.7H799a86.17,86.17,0,0,1,23.23,2.84,50,50,0,0,1,16.85,8A34.59,34.59,0,0,1,849.36,34a36,36,0,0,1,3.47,15.72A33.09,33.09,0,0,1,850.15,63,36.73,36.73,0,0,1,842.66,74a45.88,45.88,0,0,1-11.55,8.45,64.5,64.5,0,0,1-12.84,5Zm-30.3-2.61h25.08L813.84,86l1.9-.48a63.8,63.8,0,0,0,14.16-5.31,43.25,43.25,0,0,0,10.89-8,34.23,34.23,0,0,0,7-10.28,30.27,30.27,0,0,0,2.46-12.18A33.44,33.44,0,0,0,847,35.17a31.91,31.91,0,0,0-9.53-11.51,47.35,47.35,0,0,0-16-7.61A83.39,83.39,0,0,0,799,13.31H750V155l21.79-16.9V87.64h19Zm-54.06-72.9H771.74V19.78H794.5a35.28,35.28,0,0,1,12.79,2.28,31.05,31.05,0,0,1,10.16,6.34,28.08,28.08,0,0,1,6.66,9.81,33.05,33.05,0,0,1,2.34,12.54,28.91,28.91,0,0,1-11.28,23.51,39,39,0,0,1-12.45,6.41h0A51.85,51.85,0,0,1,787.17,82.92Zm-12.82-2.61h12.82a49.2,49.2,0,0,0,14.76-2.13h0a36.51,36.51,0,0,0,11.63-6,26.37,26.37,0,0,0,10.28-21.46,30.26,30.26,0,0,0-2.15-11.55,25.51,25.51,0,0,0-6-8.9,28.61,28.61,0,0,0-9.32-5.81,32.66,32.66,0,0,0-11.84-2.1H774.35Z"/><path class="cls-1" d="M15.15,226.34V193.65c0-.31.27-.47.82-.47H41q6.19,0,9.9,1.93t3.7,5.18v19.4c0,2.17-1.23,3.89-3.7,5.18a21.48,21.48,0,0,1-9.9,1.94H16C15.42,226.81,15.15,226.65,15.15,226.34Zm4-1H41c3.38,0,6-.5,7.81-1.51a4.64,4.64,0,0,0,2.75-4.19v-19.3a4.64,4.64,0,0,0-2.75-4.18A16.35,16.35,0,0,0,41,194.64H19.11c-.61,0-.91.14-.91.42v29.86C18.2,225.2,18.5,225.34,19.11,225.34Z"/><path class="cls-1" d="M41,227H16c-.84,0-1-.37-1-.67V193.65c0-.31.18-.67,1-.67H41a21.77,21.77,0,0,1,10,2c2.53,1.32,3.81,3.12,3.81,5.35v19.4c0,2.24-1.28,4-3.81,5.36A21.77,21.77,0,0,1,41,227ZM16,193.38c-.62,0-.62.2-.62.27v32.69c0,.06,0,.27.62.27H41a21.36,21.36,0,0,0,9.8-1.92c2.39-1.24,3.6-2.92,3.6-5v-19.4c0-2.07-1.21-3.75-3.6-5a21.37,21.37,0,0,0-9.8-1.91Zm25,32.16H19.11c-.74,0-1.11-.21-1.11-.62V195.06c0-.41.37-.62,1.11-.62H41A16.68,16.68,0,0,1,48.86,196a4.86,4.86,0,0,1,2.85,4.36v19.3A4.84,4.84,0,0,1,48.86,224,16.68,16.68,0,0,1,41,225.54Zm-21.84-30.7c-.16,0-.71,0-.71.22v29.86c0,.21.55.22.71.22H41a16.29,16.29,0,0,0,7.72-1.49,4.42,4.42,0,0,0,2.64-4v-19.3a4.42,4.42,0,0,0-2.64-4,16.28,16.28,0,0,0-7.72-1.5Z"/><path class="cls-1" d="M76.17,193.65v32.69c0,.31-.27.47-.81.47H73.94c-.54,0-.81-.16-.81-.47V193.65c0-.31.27-.47.81-.47h1.42C75.9,193.18,76.17,193.34,76.17,193.65Z"/><path class="cls-1" d="M75.36,227H73.94c-.84,0-1-.37-1-.67V193.65c0-.31.17-.67,1-.67h1.42c.88,0,1,.42,1,.67v32.69C76.37,226.59,76.24,227,75.36,227Zm-1.42-33.63c-.61,0-.61.2-.61.27v32.69c0,.06,0,.27.61.27h1.42c.61,0,.61-.21.61-.27V193.65c0-.07,0-.27-.61-.27Z"/><path class="cls-1" d="M118.72,226.81H107.55a21.48,21.48,0,0,1-9.9-1.94c-2.47-1.29-3.71-3-3.71-5.18v-19.4q0-3.24,3.71-5.18t9.9-1.93h11.17q6.19,0,9.9,1.93t3.71,5.18v2.62c0,.31-.27.47-.82.47h-1.42c-.54,0-.81-.16-.81-.47v-2.57a4.63,4.63,0,0,0-2.74-4.18,16.43,16.43,0,0,0-7.82-1.52H107.55a16.4,16.4,0,0,0-7.82,1.52A4.63,4.63,0,0,0,97,200.34v19.3a4.63,4.63,0,0,0,2.74,4.19c1.83,1,4.43,1.51,7.82,1.51h11.17q5.07,0,7.82-1.51a4.63,4.63,0,0,0,2.74-4.19v-7.9c0-.27-.3-.41-.91-.41h-13.1c-.61,0-.92-.14-.92-.42v-.63c0-.28.31-.42.92-.42H130.5c1.22,0,1.83.33,1.83,1v8.83c0,2.17-1.24,3.89-3.71,5.18A21.48,21.48,0,0,1,118.72,226.81Z"/><path class="cls-1" d="M118.72,227H107.55a21.74,21.74,0,0,1-10-2c-2.54-1.32-3.82-3.12-3.82-5.36v-19.4c0-2.23,1.28-4,3.82-5.35a21.77,21.77,0,0,1,10-2h11.17a21.77,21.77,0,0,1,10,2c2.53,1.32,3.82,3.12,3.82,5.35v2.62c0,.3-.18.67-1,.67h-1.42c-.83,0-1-.37-1-.67v-2.57a4.4,4.4,0,0,0-2.64-4,16.28,16.28,0,0,0-7.72-1.5H107.55a16.25,16.25,0,0,0-7.72,1.5,4.4,4.4,0,0,0-2.64,4v19.3a4.4,4.4,0,0,0,2.64,4c1.78,1,4.38,1.49,7.72,1.49h11.17a16.26,16.26,0,0,0,7.72-1.49,4.4,4.4,0,0,0,2.64-4v-7.9c0-.2-.55-.21-.71-.21h-13.1c-.74,0-1.12-.21-1.12-.62v-.63c0-.41.38-.62,1.12-.62H130.5c1.35,0,2,.4,2,1.2v8.83c0,2.24-1.29,4-3.82,5.36A21.74,21.74,0,0,1,118.72,227Zm-11.17-33.63a21.39,21.39,0,0,0-9.81,1.91c-2.39,1.25-3.6,2.93-3.6,5v19.4c0,2.08,1.21,3.76,3.6,5a21.38,21.38,0,0,0,9.81,1.92h11.17a21.38,21.38,0,0,0,9.81-1.92c2.39-1.24,3.6-2.92,3.6-5v-8.83c0-.2,0-.8-1.63-.8H115.27c-.17,0-.72,0-.72.22v.63c0,.2.55.22.72.22h13.1c.74,0,1.11.2,1.11.61v7.9a4.84,4.84,0,0,1-2.85,4.36,16.63,16.63,0,0,1-7.91,1.54H107.55A16.7,16.7,0,0,1,99.63,224a4.84,4.84,0,0,1-2.84-4.36v-19.3A4.86,4.86,0,0,1,99.63,196a16.73,16.73,0,0,1,7.92-1.54h11.17a16.65,16.65,0,0,1,7.91,1.54,4.86,4.86,0,0,1,2.85,4.36v2.57c0,.06,0,.27.61.27h1.42c.62,0,.62-.21.62-.27v-2.62c0-2.07-1.21-3.75-3.6-5a21.39,21.39,0,0,0-9.81-1.91Z"/><path class="cls-1" d="M156.36,193.65v32.69c0,.31-.27.47-.82.47h-1.42c-.54,0-.81-.16-.81-.47V193.65c0-.31.27-.47.81-.47h1.42C156.09,193.18,156.36,193.34,156.36,193.65Z"/><path class="cls-1" d="M155.54,227h-1.42c-.83,0-1-.37-1-.67V193.65c0-.31.18-.67,1-.67h1.42c.89,0,1,.42,1,.67v32.69C156.56,226.59,156.43,227,155.54,227Zm-1.42-33.63c-.61,0-.61.2-.61.27v32.69c0,.06,0,.27.61.27h1.42c.62,0,.62-.21.62-.27V193.65c0-.07,0-.27-.62-.27Z"/><path class="cls-1" d="M191.75,226.81h-1.42c-.54,0-.81-.16-.81-.47V195.06c0-.28-.31-.42-.92-.42H173c-.61,0-.91-.14-.91-.42v-.62c0-.28.3-.42.91-.42h36.15c.61,0,.92.14.92.42v.62c0,.28-.31.42-.92.42H193.47c-.6,0-.91.14-.91.42v31.28C192.56,226.65,192.29,226.81,191.75,226.81Z"/><path class="cls-1" d="M191.75,227h-1.42c-.84,0-1-.37-1-.67V195.06c0-.2-.54-.22-.71-.22H173c-.74,0-1.11-.2-1.11-.62v-.62c0-.41.37-.62,1.11-.62h36.15c.74,0,1.12.21,1.12.62v.62c0,.42-.38.62-1.12.62H193.47c-.16,0-.71,0-.71.22v31.28C192.76,226.59,192.63,227,191.75,227ZM173,193.38c-.16,0-.71,0-.71.22v.62c0,.21.55.22.71.22H188.6c.74,0,1.12.21,1.12.62v31.28c0,.06,0,.27.61.27h1.42c.61,0,.61-.21.61-.27V195.06c0-.41.38-.62,1.11-.62h15.64c.17,0,.72,0,.72-.22v-.62c0-.2-.55-.22-.72-.22Z"/><path class="cls-1" d="M217.23,226.81h-1.42c-.61,0-.81-.16-.61-.47l21.33-32.69a1.12,1.12,0,0,1,1-.47H240a1.13,1.13,0,0,1,1,.47l21.32,32.69c.21.31,0,.47-.61.47h-1.52a1.15,1.15,0,0,1-1-.47l-6.19-9.1H224.55l-6.2,9.1A1.41,1.41,0,0,1,217.23,226.81Zm21.33-31.64-12.9,20.5h26.2L239,195.17Z"/><path class="cls-1" d="M261.71,227h-1.52a1.3,1.3,0,0,1-1.18-.56l-6.14-9H224.65l-6.13,9a1.61,1.61,0,0,1-1.29.56h-1.42c-.47,0-.73-.09-.84-.29a.48.48,0,0,1,.06-.49l21.33-32.69a1.31,1.31,0,0,1,1.18-.56H240a1.33,1.33,0,0,1,1.19.56l21.32,32.69a.44.44,0,0,1,.06.49C262.45,226.92,262.19,227,261.71,227Zm-37.27-10h28.65l6.25,9.18a.92.92,0,0,0,.85.39h1.52c.37,0,.47-.06.49-.08s0,0-.05-.08l-21.32-32.69a.92.92,0,0,0-.85-.38h-2.44a.9.9,0,0,0-.84.38l-21.33,32.69a.14.14,0,0,0,0,.09,1,1,0,0,0,.48.07h1.42a1.2,1.2,0,0,0,1-.41Zm27.79-1.17H225.3L238.45,195h.63Zm-26.2-.4H251.5l-12.65-20.1h-.18Z"/><path class="cls-1" d="M307.41,226.81h-32c-.54,0-.81-.16-.81-.47V193.65c0-.31.27-.47.81-.47h1.42c.54,0,.81.16.81.47v31.17c0,.28.31.42.92.42h28.84c.61,0,.91.14.91.42v.73C308.32,226.67,308,226.81,307.41,226.81Z"/><path class="cls-1" d="M307.41,227h-32c-.84,0-1-.37-1-.67V193.65c0-.31.17-.67,1-.67h1.42c.88,0,1,.42,1,.67v31.17c0,.2.54.22.71.22h28.84c.74,0,1.11.21,1.11.62v.73C308.52,226.8,308.15,227,307.41,227Zm-32-33.63c-.61,0-.61.2-.61.27v32.69c0,.06,0,.27.61.27h32c.16,0,.71,0,.71-.22v-.73c0-.21-.55-.22-.71-.22H278.57c-.74,0-1.12-.21-1.12-.62V193.65c0-.07,0-.27-.61-.27Z"/><path class="cls-1" d="M689.11,227.12H688c-.43,0-.64-.16-.64-.48V194.78c0-.28-.24-.43-.72-.43H674.4q-.72,0-.72-.42v-.64c0-.28.24-.43.72-.43h28.31c.47,0,.71.15.71.43v.64c0,.28-.24.42-.71.42H690.46c-.48,0-.71.15-.71.43v31.86C689.75,227,689.53,227.12,689.11,227.12Z"/><path class="cls-1" d="M689.11,227.32H688c-.76,0-.84-.47-.84-.68V194.78c0-.05,0-.22-.52-.22H674.4c-.8,0-.92-.4-.92-.63v-.64c0-.23.12-.63.92-.63h28.31c.79,0,.91.4.91.63v.64c0,.23-.12.63-.91.63H690.46c-.51,0-.51.17-.51.22v31.86C690,226.85,689.86,227.32,689.11,227.32ZM674.4,193.06c-.52,0-.52.17-.52.23v.64s0,.22.52.22h12.24c.8,0,.92.4.92.63v31.86c0,.11,0,.28.44.28h1.11c.43,0,.43-.18.43-.28V194.78c0-.23.12-.63.92-.63h12.25c.51,0,.51-.17.51-.22v-.64c0-.06,0-.23-.51-.23Z"/><path class="cls-1" d="M726.44,227.12h-2.15a.89.89,0,0,1-.87-.48l-11.53-33.3q-.17-.48.63-.48h1.12a.82.82,0,0,1,.79.48l10.74,31.76h.32l13.27-31.76a.89.89,0,0,1,.88-.48h1.51a.88.88,0,0,1,.87.48l13.36,31.76h.32l10.74-31.76q.15-.48.87-.48h1.19q.72,0,.48.48l-11.53,33.3a.73.73,0,0,1-.79.48h-2.15a.89.89,0,0,1-.88-.48l-13-31.43h-.31l-13,31.43A.81.81,0,0,1,726.44,227.12Z"/><path class="cls-1" d="M756.65,227.32h-2.14a1.09,1.09,0,0,1-1.06-.59l-13-31.32h-.05l-13,31.31a1,1,0,0,1-1,.6h-2.15a1.07,1.07,0,0,1-1-.59L711.7,193.41a.5.5,0,0,1,0-.49.91.91,0,0,1,.77-.26h1.12a1,1,0,0,1,1,.59l10.7,31.65h0l13.23-31.63a1.07,1.07,0,0,1,1.06-.61h1.51a1.07,1.07,0,0,1,1.05.59l13.32,31.65h0l10.69-31.62c.09-.28.35-.62,1.06-.62h1.19c.35,0,.57.08.68.25a.51.51,0,0,1,0,.52l-11.52,33.28A.92.92,0,0,1,756.65,227.32ZM740.14,195h.59l13.09,31.56a.7.7,0,0,0,.69.35h2.14c.44,0,.56-.19.61-.34l11.53-33.3c.06-.12.05-.16.05-.16h0s-.06-.06-.34-.06h-1.19c-.51,0-.64.2-.68.35L755.85,225.3h-.6l0-.12-13.36-31.76a.69.69,0,0,0-.69-.36h-1.51a.7.7,0,0,0-.7.37L725.62,225.3H725l0-.14-10.74-31.75a.61.61,0,0,0-.6-.35h-1.12c-.37,0-.44.09-.45.1s0,.09,0,.12l11.53,33.3a.68.68,0,0,0,.68.34h2.15a.61.61,0,0,0,.61-.37Z"/><path class="cls-1" d="M781,193.34v33.3c0,.32-.21.48-.64.48h-1.11c-.43,0-.64-.16-.64-.48v-33.3c0-.32.21-.48.64-.48h1.11C780.77,192.86,781,193,781,193.34Z"/><path class="cls-1" d="M780.34,227.32h-1.11c-.76,0-.84-.47-.84-.68v-33.3c0-.2.08-.68.84-.68h1.11c.76,0,.84.48.84.68v33.3C781.18,226.85,781.1,227.32,780.34,227.32Zm-1.11-34.26c-.44,0-.44.18-.44.28v33.3c0,.11,0,.28.44.28h1.11c.44,0,.44-.18.44-.28v-33.3c0-.1,0-.28-.44-.28Z"/><path class="cls-1" d="M796.63,227.12h-1.11c-.43,0-.64-.16-.64-.48v-33.3c0-.32.21-.48.64-.48h1.11a.67.67,0,0,1,.56.22l26.64,30.21h.32V193.34q0-.48.63-.48h1.11c.43,0,.64.16.64.48v33.3c0,.32-.21.48-.64.48h-.79a1.25,1.25,0,0,1-1-.42l-26.56-30.11h-.32v30C797.27,227,797.06,227.12,796.63,227.12Z"/><path class="cls-1" d="M825.89,227.32h-.79a1.43,1.43,0,0,1-1.1-.49l-26.5-30h0v29.85c0,.21-.08.68-.84.68h-1.11c-.73,0-.84-.42-.84-.68v-33.3c0-.25.11-.68.84-.68h1.11a.84.84,0,0,1,.72.3l26.57,30.13h0V193.34c0-.2.09-.68.84-.68h1.11c.76,0,.84.48.84.68v33.3C826.73,226.85,826.65,227.32,825.89,227.32Zm-28.82-30.93h.61l26.62,30.17a1,1,0,0,0,.8.36h.79c.44,0,.44-.18.44-.28v-33.3c0-.09,0-.28-.44-.28h-1.11c-.43,0-.43.18-.43.28v30.15h-.61l-.06-.07L797,193.21a.49.49,0,0,0-.41-.15h-1.11c-.44,0-.44.18-.44.28v33.3c0,.11,0,.28.44.28h1.11c.44,0,.44-.18.44-.28Z"/><path class="cls-1" d="M840,219.88v-2.13q0-.48.63-.48h1.12q.63,0,.63.48v2.07a5,5,0,0,0,2.15,4.27,10.36,10.36,0,0,0,6.12,1.54h9.55a10.38,10.38,0,0,0,6.12-1.54,5,5,0,0,0,2.14-4.27v-2.66q0-2.5-2.94-4a24.44,24.44,0,0,0-7.11-2.13l-8.35-1.33a23.22,23.22,0,0,1-7.12-2.21c-2-1-2.94-2.44-2.94-4.21v-3.2a6.08,6.08,0,0,1,2.9-5.27,13.55,13.55,0,0,1,7.75-2h9.55a13.55,13.55,0,0,1,7.75,2,6.08,6.08,0,0,1,2.9,5.27v1.6c0,.32-.21.48-.64.48h-1.11c-.42,0-.64-.16-.64-.48v-1.55a5,5,0,0,0-2.14-4.26,10.38,10.38,0,0,0-6.12-1.55h-9.55a10.36,10.36,0,0,0-6.12,1.55,5,5,0,0,0-2.15,4.26v3.09q0,3.94,10,5.44,4.21.59,8.39,1.3a21.1,21.1,0,0,1,7.12,2.45,5.21,5.21,0,0,1,2.94,4.61v2.83a6.08,6.08,0,0,1-2.9,5.27,13.55,13.55,0,0,1-7.75,2h-9.55a13.55,13.55,0,0,1-7.75-2A6.08,6.08,0,0,1,840,219.88Z"/><path class="cls-1" d="M860.23,227.32h-9.54a13.83,13.83,0,0,1-7.86-2,6.29,6.29,0,0,1-3-5.44v-2.13c0-.21.08-.69.83-.69h1.12c.75,0,.83.48.83.69v2.07a4.74,4.74,0,0,0,2.07,4.1,10.22,10.22,0,0,0,6,1.51h9.54a10.24,10.24,0,0,0,6-1.51,4.73,4.73,0,0,0,2.06-4.1v-2.66c0-1.6-.92-2.84-2.83-3.79a24.72,24.72,0,0,0-7.06-2.11l-8.34-1.33a23.33,23.33,0,0,1-7.18-2.24c-2-1.06-3-2.53-3-4.38v-3.2a6.29,6.29,0,0,1,3-5.44,13.83,13.83,0,0,1,7.86-2h9.54a13.86,13.86,0,0,1,7.87,2,6.32,6.32,0,0,1,3,5.44v1.6c0,.2-.08.68-.84.68h-1.11c-.73,0-.84-.43-.84-.68v-1.55a4.73,4.73,0,0,0-2.06-4.1,10.24,10.24,0,0,0-6-1.5h-9.54a10.23,10.23,0,0,0-6,1.5,4.74,4.74,0,0,0-2.07,4.1v3.09c0,2.5,3.32,4.27,9.85,5.24,2.83.39,5.66.83,8.4,1.31a21.31,21.31,0,0,1,7.18,2.47,5.41,5.41,0,0,1,3,4.78v2.83a6.32,6.32,0,0,1-3,5.44A13.84,13.84,0,0,1,860.23,227.32Zm-19.56-9.85c-.43,0-.43.17-.43.28v2.13a5.91,5.91,0,0,0,2.81,5.1,13.4,13.4,0,0,0,7.64,1.94h9.54a13.46,13.46,0,0,0,7.64-1.93,5.93,5.93,0,0,0,2.82-5.11v-2.83a5,5,0,0,0-2.84-4.43,20.84,20.84,0,0,0-7.05-2.43c-2.74-.47-5.56-.91-8.39-1.3-6.85-1-10.19-2.87-10.19-5.64v-3.09a5.16,5.16,0,0,1,2.23-4.42,10.61,10.61,0,0,1,6.24-1.59h9.54a10.57,10.57,0,0,1,6.24,1.59,5.15,5.15,0,0,1,2.24,4.42v1.55c0,.1,0,.28.43.28h1.11c.44,0,.44-.18.44-.28v-1.6a5.93,5.93,0,0,0-2.82-5.11,13.48,13.48,0,0,0-7.64-1.94h-9.54a13.53,13.53,0,0,0-7.64,1.94,5.94,5.94,0,0,0-2.81,5.11v3.2c0,1.71.93,3,2.83,4a23.19,23.19,0,0,0,7.06,2.19l8.35,1.33a25.17,25.17,0,0,1,7.17,2.15c2,1,3.06,2.41,3.06,4.15v2.66a5.18,5.18,0,0,1-2.24,4.43,10.57,10.57,0,0,1-6.24,1.58h-9.54a10.62,10.62,0,0,1-6.24-1.58,5.19,5.19,0,0,1-2.23-4.43v-2.07c0-.1,0-.28-.43-.28Z"/></svg>